<?xml version="1.0" encoding="utf-8"?>
<!-- Generator: Adobe Illustrator 19.0.0, SVG Export Plug-In . SVG Version: 6.00 Build 0)  -->
<svg version="1.1" id="Capa_5" xmlns="http://www.w3.org/2000/svg" xmlns:xlink="http://www.w3.org/1999/xlink" x="0px" y="0px"
	 viewBox="0 0 141.8 114.8" style="enable-background:new 0 0 141.8 114.8;" xml:space="preserve">
<style type="text/css">
	.st0{fill:none;stroke:#ED1B33;stroke-width:3;stroke-linecap:round;stroke-linejoin:round;stroke-miterlimit:10;}
</style>
<g id="XMLID_470_">
	<g id="XMLID_2_">
		<g id="XMLID_17_">
			<path id="XMLID_21_" class="st0" d="M95.1,92.2c0-0.9-0.2-1.7-0.7-2.3c-0.4-0.7-1.1-1.2-1.7-1.7c-1.8-1.8-2.2-4.6-1.8-7
				c0-0.2,0.1-0.3,0.2-0.4c0.1-0.1,0.3-0.1,0.5-0.1c1.5,0.1,3.1,0.2,4.6,0.2c1.1-1.6-0.2-4-2.2-3.6c-0.5,0.1-1.1,0.3-1.4-0.1
				c-0.1-0.1-0.1-0.2-0.2-0.3c-0.6-1.6-0.7-3.2,1.5-3.1c1.3,0.1,2.7,0.9,4,0.6c2.2-0.5,3.9-1.8,6.1-2c1.7-0.1,2.6,1.5,3,3
				c0.1,0.5,0.2,1.1,0.7,1.3c0.2,0.1,0.3,0.1,0.5,0.1c0.6,0.1,1.4,0.1,1.8-0.3c0.8-0.8,0.2-1.9,0-2.8c-0.3-1.2-0.7-2.4-1.1-3.6
				c-0.5-1.6-1.6-3.5-1.9-5.1c-0.2-1.4,0.6-2.4,0.5-3.8c-0.1-1.4-1.5-2.9-1.8-4.4c-0.3-1.6,0.1-3.4-0.5-4.9
				c-0.2-0.5-0.5-1.1-0.4-1.6c0.1-0.5,0.4-0.8,0.7-1.2c0.5-0.7,0.9-1.4,1.1-2.2c1.5-5-6.1-2.9-8.5-2.8c-1.4,0.1-2.9,0.1-4.1-0.6
				c-1.8-0.9-2.8-2.9-4.4-4.1c-2.2-1.6-5.4-1-7.9-0.9c-0.7,0-1.4,0.1-2.2,0.1c-1.3,0-2.5-0.7-3.5-1.6c-0.5-0.4-0.9-0.9-1.1-1.5
				c-0.9-2,0.4-4.4-0.3-6.5c-0.6-1.9-1.8-3.3-2.2-5.3c-0.5-2.1-0.7-4.4,0.1-6.5c0.4-1,1-1.9,1.6-2.8c0.9-1.2,1.7-2.5,2.6-3.8
				c0.8-1.1,1.6-2.2,2.7-2.8c1.2-0.6,3-0.7,3.4-1.9c0.1-0.4,0.1-0.9,0-1.3C82.8,4,82.6,3.3,82,2.8c-0.9-0.7-2.2-0.4-3.1,0.2
				c-0.9,0.7-1.5,1.7-2.2,2.6c-3,3.8-8.1,5.2-12.8,6.4c-2.2,0.6-4.7,0.6-6.8,1.8c-0.9,0.5-2,1.4-2.4,2.4c-0.8,2,0.3,4.1-0.6,6.1
				c-0.7,1.6-2,3-3.4,4c-1.1,0.8-2.4,1.7-2.6,3c-0.1,0.6,0.1,1.2,0,1.8c-0.1,0.6-0.4,1.3-1,1.4c-0.5,0-0.9-0.3-1.2-0.7
				c-0.2-0.4-0.3-0.9-0.4-1.4c-0.3-1.1-0.8-2-1.6-2.8c-0.3-0.3-0.7-0.6-1.1-0.6c-0.8,0-1.3,0.7-1.4,1.5c-0.1,0.8,0.2,1.5,0.4,2.2
				c0.2,0.7,0.2,1.6-0.2,2.2c-0.4,0.5-1,0.7-1.5,1c-3,2.2,0.8,5.4,1.7,7.6c1.6,3.9,0.3,8.1,1.2,12.1c0.1,0.7,0.3,1.4,0.3,2.1
				c0,1.2-0.6,2.4-0.5,3.5c0.2,1.2,0.6,1.9,0.2,3.2c-0.4,1.5-1.4,3-2.7,3.9c-1.3,1-3.2,0.8-4.3,1.9c-0.7,0.6-0.9,1.6-1,2.5
				c-0.2,2-1.7,1.4-3,2.1c-0.9,0.5-1.6,1.8-0.4,2.5c0.3,0.2,0.7,0.2,1,0.3c0.8,0.3,1.4,1.1,2,1.7c1.7,1.9,4.3-0.1,5.5,2.3
				c0.5,0.9,0.7,2,1.4,2.7c1.5,1.5,7.2,0.1,9.5,0.8c1.9,0.5,3.6,1.5,5.3,2.4c2.5,1.4,5.1,2.9,7.1,5c1,1.1,1.9,2.3,3.1,3
				c0.8,0.5,1.8,0.8,2.3,1.5c0.4,0.5,0.5,1,0.7,1.6c0.3,1,0.5,2.1,1.1,3.1c1.5,2.4,6.9,1.6,9.1,0.7c2.5-1,4.7-1.1,7,0.5
				c1.3,1,1.4,3,1,4.6c-0.5,1.6-1.3,3.1-1.3,4.8c0,0.4,0.1,0.9,0.6,1.1c0.6,0.1,1-0.6,1.5-0.7c0.9-0.1,1.2,1.3,2.1,1.5
				c0.8,0.2,1.4-0.8,1.6-1.7c0.9-3.9,0.1-7.6,1.3-11.5C94.2,97.5,95.2,94.6,95.1,92.2z"/>
			<path id="XMLID_20_" class="st0" d="M72.9,64.9c4.3,0.2,7.5,1.6,7.5,3.2c0,1.8-4,3.3-9,3.3c-5,0-9-1.5-9-3.3c0-1.6,3.3-3,7.5-3.2
				"/>
			<path id="XMLID_19_" class="st0" d="M70,64.9c-1.8-3.1-4.6-8.5-4.6-10.8c0-3.3,2.7-6.1,6.1-6.1c3.4,0,6.1,2.7,6.1,6.1
				c0,2.3-2.8,7.7-4.6,10.8c-0.8,1.5-1.4,2.4-1.4,2.4S70.8,66.3,70,64.9z"/>
			<circle id="XMLID_18_" class="st0" cx="71.4" cy="54.4" r="1.8"/>
		</g>
	</g>
</g>
</svg>
