<?xml version="1.0" encoding="utf-8"?>
<!-- Generator: Adobe Illustrator 19.0.0, SVG Export Plug-In . SVG Version: 6.00 Build 0)  -->
<svg version="1.1" xmlns="http://www.w3.org/2000/svg" xmlns:xlink="http://www.w3.org/1999/xlink" x="0px" y="0px"
	 viewBox="0 0 141.8 114.8" style="enable-background:new 0 0 141.8 114.8;" xml:space="preserve">
<style type="text/css">
	.st0{fill:none;stroke:#ED1B33;stroke-width:3;stroke-linecap:round;stroke-linejoin:round;stroke-miterlimit:10;}
	.st1{display:none;}
	.st2{display:inline;}
</style>
<g id="Capa_1">
	<g id="XMLID_483_">
		<g id="XMLID_1_">
			<g id="XMLID_23_">
				<path id="XMLID_29_" class="st0" d="M78.7,69.3c0.2-0.4,0.2-0.8,0.2-1.2V47.2l7.6,11.5c1.1,2,3.6,2.7,5.5,1.6
					c2-1.1,2.7-3.6,1.6-5.6L81.3,37.2c-0.8-1.5-2.6-1.8-4.1-1.8H76c-1.5,1-3.2,1.6-5.2,1.6c-1.9,0-3.7-0.6-5.2-1.6h-1.1
					c-1.6,0-3.3,0.3-4.1,1.8L47.3,53.9c-1.1,2-0.4,4.5,1.6,5.6c0.6,0.3,1.3,0.5,2,0.5c1.4,0,2.8-0.8,3.6-2.1l7.6-10.7v20.6"/>
				<path id="XMLID_28_" class="st0" d="M82.7,78.2c-6.9-0.5-20.4-1-25.4,0.6"/>
				<path id="XMLID_27_" class="st0" d="M29.9,71.5c4.6-1.7,11.7-5.2,17.1-5c3.6,0.1,10.2,0.9,15,1.3c1.9,0.2,3.5,0.3,4.5,0.3
					c1.7,0,7.3,0.7,12.1,1.1c2.2,0.2,4.3,0.3,5.7,0.3c2.4,0,4.4,1.9,4.4,4.4c0,0.8-0.2,1.6-0.6,2.2"/>
				<path id="XMLID_26_" class="st0" d="M88.2,76.2c4.2-1.9,20.6-11.3,28.3-16.1c2.6-1.6,6-1.1,8,1.3c1,1.2,1.4,2.5,1.4,3.9
					c0,2-1,4-2.8,5.2c-3.8,2.4-8.9,5.7-13.2,8.4c-8.3,5.2-18.2,13.1-23.4,14.9c-5.2,1.8-13.4,5.5-24,3c-8.8-2-21-2.5-28.6-0.6
					c-1.5,0.4-2.8,0.9-3.9,1.4"/>
				<polygon id="XMLID_25_" class="st0" points="29.9,97.5 29.9,101.3 15.9,101.3 15.9,66.5 29.9,66.5 29.9,71.5 				"/>
				<path id="XMLID_24_" class="st0" d="M80.2,22.8c0,5.2-4.2,9.3-9.3,9.3c-5.2,0-9.3-4.2-9.3-9.3c0-5.1,4.2-9.3,9.3-9.3
					C76,13.5,80.2,17.7,80.2,22.8z"/>
			</g>
		</g>
	</g>
</g>
<g id="Capa_2" class="st1">
	<g id="XMLID_370_" class="st2">
		<g id="XMLID_332_">
			<g id="XMLID_3_">
				<g id="XMLID_33_">
					<rect id="XMLID_41_" x="33.4" y="7.5" class="st0" width="75" height="99.8"/>
					<line id="XMLID_40_" class="st0" x1="45.8" y1="42.2" x2="95.8" y2="42.2"/>
					<line id="XMLID_39_" class="st0" x1="45.8" y1="57.2" x2="95.8" y2="57.2"/>
					<line id="XMLID_38_" class="st0" x1="45.8" y1="28.2" x2="95.8" y2="28.2"/>
					<line id="XMLID_37_" class="st0" x1="45.8" y1="71.2" x2="76.9" y2="71.2"/>
					<line id="XMLID_36_" class="st0" x1="45.8" y1="86.2" x2="76" y2="86.2"/>
					<path id="XMLID_35_" class="st0" d="M76.9,71.2c2.5-3.5,6.6-5.8,11.3-5.8c7.7,0,13.9,6.2,13.9,13.9c0,7.7-6.2,13.9-13.9,13.9
						c-5.2,0-9.7-2.9-12.1-7.1c-1.2-2-1.8-4.3-1.8-6.8C74.2,76.3,75.2,73.5,76.9,71.2z"/>
					<polyline id="XMLID_34_" class="st0" points="82.1,80.6 86.5,85.1 94.1,73.7 					"/>
				</g>
			</g>
		</g>
	</g>
</g>
<g id="Capa_3" class="st1">
	<g id="XMLID_371_" class="st2">
		<path id="XMLID_431_" class="st0" d="M54.9,69.9H39.3c0,0-22-1.6-22-23.9c0,0,1.5-16.1,17-19.9c0,0,13.2-1.9,20.5,7.8"/>
		<path id="XMLID_430_" class="st0" d="M34.3,26.2c0,0,2.2-21.7,20.4-21.7s22,17.3,22,17.3s26.8-12.7,32,17.5c0,0,15-0.9,15,15.5
			c0,0-1.8,14.1-14,14.1H86.9"/>
		<path id="XMLID_406_" class="st0" d="M85.6,45v37.2c0,5,4.1,9.1,9.1,9.1h0.4"/>
		<path id="XMLID_405_" class="st0" d="M55.7,45v37.2c0,5-4.1,9.1-9.1,9.1h-0.4"/>
		<line id="XMLID_404_" class="st0" x1="66.4" y1="35.4" x2="66.4" y2="75.4"/>
		<line id="XMLID_403_" class="st0" x1="76.4" y1="35.4" x2="76.4" y2="75.4"/>
		<circle id="XMLID_402_" class="st0" cx="66.2" cy="81.9" r="1.4"/>
		<circle id="XMLID_397_" class="st0" cx="66.2" cy="90.7" r="1.4"/>
		<circle id="XMLID_395_" class="st0" cx="23.6" cy="90.7" r="1.4"/>
		<circle id="XMLID_394_" class="st0" cx="13.8" cy="90.7" r="1.4"/>
		<circle id="XMLID_393_" class="st0" cx="4.3" cy="90.7" r="1.4"/>
		<circle id="XMLID_392_" class="st0" cx="137.5" cy="90.7" r="1.4"/>
		<circle id="XMLID_391_" class="st0" cx="127.7" cy="90.7" r="1.4"/>
		<circle id="XMLID_390_" class="st0" cx="118.2" cy="90.7" r="1.4"/>
		<circle id="XMLID_389_" class="st0" cx="66.2" cy="99.9" r="1.4"/>
		<circle id="XMLID_388_" class="st0" cx="66.2" cy="109" r="1.4"/>
		<circle id="XMLID_386_" class="st0" cx="74.9" cy="81.9" r="1.4"/>
		<circle id="XMLID_385_" class="st0" cx="74.9" cy="90.7" r="1.4"/>
		<circle id="XMLID_375_" class="st0" cx="74.9" cy="99.9" r="1.4"/>
		<circle id="XMLID_374_" class="st0" cx="74.9" cy="109" r="1.4"/>
		<circle id="XMLID_373_" class="st0" cx="104.2" cy="90.8" r="7.8"/>
		<circle id="XMLID_372_" class="st0" cx="38.3" cy="90.8" r="7.8"/>
	</g>
</g>
<g id="Capa_4" class="st1">
	<g id="XMLID_482_" class="st2">
		<rect id="XMLID_450_" x="38.4" y="7.4" class="st0" width="64.9" height="100"/>
		<g id="XMLID_465_">
			<rect id="XMLID_451_" x="47.6" y="21.8" class="st0" width="9.2" height="11.4"/>
			<rect id="XMLID_453_" x="66.2" y="21.8" class="st0" width="9.2" height="11.4"/>
			<rect id="XMLID_454_" x="84.9" y="21.8" class="st0" width="9.2" height="11.4"/>
		</g>
		<g id="XMLID_464_">
			<rect id="XMLID_458_" x="47.6" y="42.8" class="st0" width="9.2" height="11.4"/>
			<rect id="XMLID_456_" x="66.2" y="42.8" class="st0" width="9.2" height="11.4"/>
			<rect id="XMLID_455_" x="84.9" y="42.8" class="st0" width="9.2" height="11.4"/>
		</g>
		<rect id="XMLID_463_" x="65.5" y="88.6" class="st0" width="10.7" height="18.1"/>
		<g id="XMLID_452_">
			<rect id="XMLID_461_" x="47.6" y="63.8" class="st0" width="9.2" height="11.4"/>
			<rect id="XMLID_460_" x="66.2" y="63.8" class="st0" width="9.2" height="11.4"/>
			<rect id="XMLID_459_" x="84.9" y="63.8" class="st0" width="9.2" height="11.4"/>
		</g>
	</g>
</g>
<g id="Capa_5" class="st1">
	<g id="XMLID_470_" class="st2">
		<g id="XMLID_2_">
			<g id="XMLID_17_">
				<path id="XMLID_21_" class="st0" d="M95.1,92.2c0-0.9-0.2-1.7-0.7-2.3c-0.4-0.7-1.1-1.2-1.7-1.7c-1.8-1.8-2.2-4.6-1.8-7
					c0-0.2,0.1-0.3,0.2-0.4c0.1-0.1,0.3-0.1,0.5-0.1c1.5,0.1,3.1,0.2,4.6,0.2c1.1-1.6-0.2-4-2.2-3.6c-0.5,0.1-1.1,0.3-1.4-0.1
					c-0.1-0.1-0.1-0.2-0.2-0.3c-0.6-1.6-0.7-3.2,1.5-3.1c1.3,0.1,2.7,0.9,4,0.6c2.2-0.5,3.9-1.8,6.1-2c1.7-0.1,2.6,1.5,3,3
					c0.1,0.5,0.2,1.1,0.7,1.3c0.2,0.1,0.3,0.1,0.5,0.1c0.6,0.1,1.4,0.1,1.8-0.3c0.8-0.8,0.2-1.9,0-2.8c-0.3-1.2-0.7-2.4-1.1-3.6
					c-0.5-1.6-1.6-3.5-1.9-5.1c-0.2-1.4,0.6-2.4,0.5-3.8c-0.1-1.4-1.5-2.9-1.8-4.4c-0.3-1.6,0.1-3.4-0.5-4.9
					c-0.2-0.5-0.5-1.1-0.4-1.6c0.1-0.5,0.4-0.8,0.7-1.2c0.5-0.7,0.9-1.4,1.1-2.2c1.5-5-6.1-2.9-8.5-2.8c-1.4,0.1-2.9,0.1-4.1-0.6
					c-1.8-0.9-2.8-2.9-4.4-4.1c-2.2-1.6-5.4-1-7.9-0.9c-0.7,0-1.4,0.1-2.2,0.1c-1.3,0-2.5-0.7-3.5-1.6c-0.5-0.4-0.9-0.9-1.1-1.5
					c-0.9-2,0.4-4.4-0.3-6.5c-0.6-1.9-1.8-3.3-2.2-5.3c-0.5-2.1-0.7-4.4,0.1-6.5c0.4-1,1-1.9,1.6-2.8c0.9-1.2,1.7-2.5,2.6-3.8
					c0.8-1.1,1.6-2.2,2.7-2.8c1.2-0.6,3-0.7,3.4-1.9c0.1-0.4,0.1-0.9,0-1.3C82.8,4,82.6,3.3,82,2.8c-0.9-0.7-2.2-0.4-3.1,0.2
					c-0.9,0.7-1.5,1.7-2.2,2.6c-3,3.8-8.1,5.2-12.8,6.4c-2.2,0.6-4.7,0.6-6.8,1.8c-0.9,0.5-2,1.4-2.4,2.4c-0.8,2,0.3,4.1-0.6,6.1
					c-0.7,1.6-2,3-3.4,4c-1.1,0.8-2.4,1.7-2.6,3c-0.1,0.6,0.1,1.2,0,1.8c-0.1,0.6-0.4,1.3-1,1.4c-0.5,0-0.9-0.3-1.2-0.7
					c-0.2-0.4-0.3-0.9-0.4-1.4c-0.3-1.1-0.8-2-1.6-2.8c-0.3-0.3-0.7-0.6-1.1-0.6c-0.8,0-1.3,0.7-1.4,1.5c-0.1,0.8,0.2,1.5,0.4,2.2
					c0.2,0.7,0.2,1.6-0.2,2.2c-0.4,0.5-1,0.7-1.5,1c-3,2.2,0.8,5.4,1.7,7.6c1.6,3.9,0.3,8.1,1.2,12.1c0.1,0.7,0.3,1.4,0.3,2.1
					c0,1.2-0.6,2.4-0.5,3.5c0.2,1.2,0.6,1.9,0.2,3.2c-0.4,1.5-1.4,3-2.7,3.9c-1.3,1-3.2,0.8-4.3,1.9c-0.7,0.6-0.9,1.6-1,2.5
					c-0.2,2-1.7,1.4-3,2.1c-0.9,0.5-1.6,1.8-0.4,2.5c0.3,0.2,0.7,0.2,1,0.3c0.8,0.3,1.4,1.1,2,1.7c1.7,1.9,4.3-0.1,5.5,2.3
					c0.5,0.9,0.7,2,1.4,2.7c1.5,1.5,7.2,0.1,9.5,0.8c1.9,0.5,3.6,1.5,5.3,2.4c2.5,1.4,5.1,2.9,7.1,5c1,1.1,1.9,2.3,3.1,3
					c0.8,0.5,1.8,0.8,2.3,1.5c0.4,0.5,0.5,1,0.7,1.6c0.3,1,0.5,2.1,1.1,3.1c1.5,2.4,6.9,1.6,9.1,0.7c2.5-1,4.7-1.1,7,0.5
					c1.3,1,1.4,3,1,4.6c-0.5,1.6-1.3,3.1-1.3,4.8c0,0.4,0.1,0.9,0.6,1.1c0.6,0.1,1-0.6,1.5-0.7c0.9-0.1,1.2,1.3,2.1,1.5
					c0.8,0.2,1.4-0.8,1.6-1.7c0.9-3.9,0.1-7.6,1.3-11.5C94.2,97.5,95.2,94.6,95.1,92.2z"/>
				<path id="XMLID_20_" class="st0" d="M72.9,64.9c4.3,0.2,7.5,1.6,7.5,3.2c0,1.8-4,3.3-9,3.3c-5,0-9-1.5-9-3.3
					c0-1.6,3.3-3,7.5-3.2"/>
				<path id="XMLID_19_" class="st0" d="M70,64.9c-1.8-3.1-4.6-8.5-4.6-10.8c0-3.3,2.7-6.1,6.1-6.1c3.4,0,6.1,2.7,6.1,6.1
					c0,2.3-2.8,7.7-4.6,10.8c-0.8,1.5-1.4,2.4-1.4,2.4S70.8,66.3,70,64.9z"/>
				<circle id="XMLID_18_" class="st0" cx="71.4" cy="54.4" r="1.8"/>
			</g>
		</g>
	</g>
</g>
<g id="Capa_6" class="st1">
	<g id="XMLID_473_" class="st2">
		<polygon id="XMLID_440_" class="st0" points="70.9,13.4 14.9,38.9 126.8,38.9 		"/>
		<g id="XMLID_449_">
			<rect id="XMLID_439_" x="108.9" y="39.8" class="st0" width="10" height="56.6"/>
			<rect id="XMLID_441_" x="51.6" y="39.8" class="st0" width="10" height="56.6"/>
			<rect id="XMLID_447_" x="80.2" y="39.8" class="st0" width="10" height="56.6"/>
			<rect id="XMLID_446_" x="23" y="39.8" class="st0" width="10" height="56.6"/>
		</g>
		<rect id="XMLID_438_" x="15" y="96.4" class="st0" width="111.9" height="5.3"/>
	</g>
</g>
</svg>
