<?xml version="1.0" encoding="utf-8"?>
<!-- Generator: Adobe Illustrator 19.0.0, SVG Export Plug-In . SVG Version: 6.00 Build 0)  -->
<svg version="1.1" id="Capa_3" xmlns="http://www.w3.org/2000/svg" xmlns:xlink="http://www.w3.org/1999/xlink" x="0px" y="0px"
	 viewBox="0 0 141.8 114.8" style="enable-background:new 0 0 141.8 114.8;" xml:space="preserve">
<style type="text/css">
	.st0{fill:none;stroke:#ED1B33;stroke-width:3;stroke-linecap:round;stroke-linejoin:round;stroke-miterlimit:10;}
</style>
<g id="XMLID_371_">
	<path id="XMLID_431_" class="st0" d="M54.9,69.9H39.3c0,0-22-1.6-22-23.9c0,0,1.5-16.1,17-19.9c0,0,13.2-1.9,20.5,7.8"/>
	<path id="XMLID_430_" class="st0" d="M34.3,26.2c0,0,2.2-21.7,20.4-21.7s22,17.3,22,17.3s26.8-12.7,32,17.5c0,0,15-0.9,15,15.5
		c0,0-1.8,14.1-14,14.1H86.9"/>
	<path id="XMLID_406_" class="st0" d="M85.6,45v37.2c0,5,4.1,9.1,9.1,9.1h0.4"/>
	<path id="XMLID_405_" class="st0" d="M55.7,45v37.2c0,5-4.1,9.1-9.1,9.1h-0.4"/>
	<line id="XMLID_404_" class="st0" x1="66.4" y1="35.4" x2="66.4" y2="75.4"/>
	<line id="XMLID_403_" class="st0" x1="76.4" y1="35.4" x2="76.4" y2="75.4"/>
	<circle id="XMLID_402_" class="st0" cx="66.2" cy="81.9" r="1.4"/>
	<circle id="XMLID_397_" class="st0" cx="66.2" cy="90.7" r="1.4"/>
	<circle id="XMLID_395_" class="st0" cx="23.6" cy="90.7" r="1.4"/>
	<circle id="XMLID_394_" class="st0" cx="13.8" cy="90.7" r="1.4"/>
	<circle id="XMLID_393_" class="st0" cx="4.3" cy="90.7" r="1.4"/>
	<circle id="XMLID_392_" class="st0" cx="137.5" cy="90.7" r="1.4"/>
	<circle id="XMLID_391_" class="st0" cx="127.7" cy="90.7" r="1.4"/>
	<circle id="XMLID_390_" class="st0" cx="118.2" cy="90.7" r="1.4"/>
	<circle id="XMLID_389_" class="st0" cx="66.2" cy="99.9" r="1.4"/>
	<circle id="XMLID_388_" class="st0" cx="66.2" cy="109" r="1.4"/>
	<circle id="XMLID_386_" class="st0" cx="74.9" cy="81.9" r="1.4"/>
	<circle id="XMLID_385_" class="st0" cx="74.9" cy="90.7" r="1.4"/>
	<circle id="XMLID_375_" class="st0" cx="74.9" cy="99.9" r="1.4"/>
	<circle id="XMLID_374_" class="st0" cx="74.9" cy="109" r="1.4"/>
	<circle id="XMLID_373_" class="st0" cx="104.2" cy="90.8" r="7.8"/>
	<circle id="XMLID_372_" class="st0" cx="38.3" cy="90.8" r="7.8"/>
</g>
</svg>
