<?xml version="1.0" encoding="utf-8"?>
<!-- Generator: Adobe Illustrator 19.0.0, SVG Export Plug-In . SVG Version: 6.00 Build 0)  -->
<svg version="1.1" id="Capa_2" xmlns="http://www.w3.org/2000/svg" xmlns:xlink="http://www.w3.org/1999/xlink" x="0px" y="0px"
	 viewBox="0 0 141.8 114.8" style="enable-background:new 0 0 141.8 114.8;" xml:space="preserve">
<style type="text/css">
	.st0{fill:none;stroke:#ED1B33;stroke-width:3;stroke-linecap:round;stroke-linejoin:round;stroke-miterlimit:10;}
</style>
<g id="XMLID_370_">
	<g id="XMLID_332_">
		<g id="XMLID_3_">
			<g id="XMLID_33_">
				<rect id="XMLID_41_" x="33.4" y="7.5" class="st0" width="75" height="99.8"/>
				<line id="XMLID_40_" class="st0" x1="45.8" y1="42.2" x2="95.8" y2="42.2"/>
				<line id="XMLID_39_" class="st0" x1="45.8" y1="57.2" x2="95.8" y2="57.2"/>
				<line id="XMLID_38_" class="st0" x1="45.8" y1="28.2" x2="95.8" y2="28.2"/>
				<line id="XMLID_37_" class="st0" x1="45.8" y1="71.2" x2="76.9" y2="71.2"/>
				<line id="XMLID_36_" class="st0" x1="45.8" y1="86.2" x2="76" y2="86.2"/>
				<path id="XMLID_35_" class="st0" d="M76.9,71.2c2.5-3.5,6.6-5.8,11.3-5.8c7.7,0,13.9,6.2,13.9,13.9c0,7.7-6.2,13.9-13.9,13.9
					c-5.2,0-9.7-2.9-12.1-7.1c-1.2-2-1.8-4.3-1.8-6.8C74.2,76.3,75.2,73.5,76.9,71.2z"/>
				<polyline id="XMLID_34_" class="st0" points="82.1,80.6 86.5,85.1 94.1,73.7 				"/>
			</g>
		</g>
	</g>
</g>
</svg>
