<?xml version="1.0" encoding="utf-8"?>
<!-- Generator: Adobe Illustrator 19.0.0, SVG Export Plug-In . SVG Version: 6.00 Build 0)  -->
<svg version="1.1" id="Capa_9" xmlns="http://www.w3.org/2000/svg" xmlns:xlink="http://www.w3.org/1999/xlink" x="0px" y="0px"
	 viewBox="0 0 155.6 137.3" style="enable-background:new 0 0 155.6 137.3;" xml:space="preserve">
<style type="text/css">
	.st0{fill:none;stroke:#000000;stroke-width:2;stroke-linecap:round;stroke-linejoin:round;stroke-miterlimit:10;}
	.st1{fill:#FFFFFF;}
	.st2{fill:none;stroke:#000000;stroke-linecap:round;stroke-linejoin:round;stroke-miterlimit:10;}
	.st3{fill:none;stroke:#000000;stroke-width:1.642;stroke-linecap:round;stroke-linejoin:round;stroke-miterlimit:10;}
	.st4{clip-path:url(#XMLID_25_);fill:#FFFFFF;}
	
		.st5{clip-path:url(#XMLID_25_);fill:none;stroke:#000000;stroke-width:2;stroke-linecap:round;stroke-linejoin:round;stroke-miterlimit:10;}
	.st6{fill:none;stroke:#000000;stroke-width:1.877;stroke-linecap:round;stroke-linejoin:round;stroke-miterlimit:10;}
</style>
<g>
	<g>
		<rect id="XMLID_23_" x="21.6" y="22.8" class="st0" width="105" height="70.3"/>
		<line id="XMLID_22_" class="st1" x1="22.1" y1="75.8" x2="126.1" y2="75.8"/>
		<line id="XMLID_21_" class="st0" x1="22.1" y1="75.8" x2="126.1" y2="75.8"/>
		<path id="XMLID_20_" d="M77.4,84.4c0,1.8-1.5,3.3-3.3,3.3c-1.8,0-3.3-1.5-3.3-3.3c0-1.8,1.5-3.3,3.3-3.3
			C75.9,81.1,77.4,82.6,77.4,84.4"/>
		<path id="XMLID_19_" d="M47.9,57.6c0,1.3-1,2.3-2.3,2.3c-1.3,0-2.3-1-2.3-2.3c0-1.3,1-2.3,2.3-2.3C46.9,55.3,47.9,56.3,47.9,57.6"
			/>
		<path id="XMLID_18_" d="M58,47.5c0,1.3-1,2.3-2.3,2.3c-1.3,0-2.3-1-2.3-2.3c0-1.3,1-2.3,2.3-2.3C56.9,45.2,58,46.2,58,47.5"/>
		<path id="XMLID_17_" d="M72.1,61.7c0,1.3-1,2.3-2.3,2.3c-1.3,0-2.3-1-2.3-2.3c0-1.3,1-2.3,2.3-2.3C71.1,59.3,72.1,60.4,72.1,61.7"
			/>
		<path id="XMLID_16_" d="M95.2,38.7c0,1.3-1,2.3-2.3,2.3c-1.3,0-2.3-1-2.3-2.3c0-1.3,1-2.3,2.3-2.3C94.1,36.3,95.2,37.4,95.2,38.7"
			/>
		<path id="XMLID_15_" d="M105.8,49.5c0,1.3-1,2.3-2.3,2.3c-1.3,0-2.3-1-2.3-2.3c0-1.3,1-2.3,2.3-2.3
			C104.7,47.2,105.8,48.2,105.8,49.5"/>
		<polyline id="XMLID_14_" class="st2" points="45.6,57.6 55.7,47.6 69.8,61.7 92.8,38.7 103.4,49.3 		"/>
		<rect id="XMLID_13_" x="61.6" y="93.1" class="st0" width="25" height="13.1"/>
		<rect id="XMLID_12_" x="55.2" y="106.2" class="st0" width="37.9" height="3.3"/>
		<rect id="XMLID_11_" x="21.6" y="22.8" class="st0" width="104.5" height="53.1"/>
	</g>
	<g>
		<path id="XMLID_10_" class="st1" d="M124,43.5c5,11.1,0,24.1-11.1,29.1c-11.1,5-24.1,0-29.1-11.1c-5-11.1,0-24.1,11.1-29.1
			C106,27.5,119.1,32.4,124,43.5"/>
		<circle id="XMLID_9_" class="st0" cx="104" cy="52.5" r="22"/>
		
			<rect id="XMLID_8_" x="109" y="74.5" transform="matrix(0.9123 -0.4095 0.4095 0.9123 -21.0817 53.569)" class="st1" width="11.1" height="3"/>
		
			<rect id="XMLID_7_" x="109" y="74.5" transform="matrix(0.9123 -0.4095 0.4095 0.9123 -21.0817 53.569)" class="st3" width="11.1" height="3"/>
	</g>
	<g>
		<defs>
			<path id="XMLID_4_" d="M96.6,35c-9.1,4.1-13.2,14.8-9.1,23.9c4.1,9.1,14.8,13.2,23.9,9.1c9.1-4.1,13.2-14.8,9.1-23.9
				c-3-6.7-9.6-10.7-16.5-10.7C101.5,33.4,99,33.9,96.6,35"/>
		</defs>
		<clipPath id="XMLID_25_">
			<use xlink:href="#XMLID_4_"  style="overflow:visible;"/>
		</clipPath>
		<polyline id="XMLID_6_" class="st4" points="65.4,54.3 85.9,33.9 93.1,59 95.3,54.3 99.8,67.1 105.8,33.9 112.9,69.5 121.1,53.6 
			125.8,76.1 135.8,60.1 152.4,33.9 155.1,79.4 		"/>
		<polyline id="XMLID_5_" class="st5" points="65.4,54.3 85.9,33.9 93.1,59 95.3,54.3 99.8,67.1 105.8,33.9 112.9,69.5 121.1,53.6 
			125.8,76.1 135.8,60.1 152.4,33.9 155.1,79.4 		"/>
	</g>
	<g>
		
			<rect id="XMLID_3_" x="120.9" y="78.3" transform="matrix(0.9123 -0.4095 0.4095 0.9123 -28.7099 59.1618)" class="st1" width="5.8" height="36.7"/>
		
			<rect id="XMLID_2_" x="120.9" y="78.3" transform="matrix(0.9123 -0.4095 0.4095 0.9123 -28.7099 59.1618)" class="st6" width="5.8" height="36.7"/>
		<circle id="XMLID_1_" class="st3" cx="104" cy="52.5" r="18.1"/>
	</g>
</g>
</svg>
