<?xml version="1.0" encoding="utf-8"?>
<!-- Generator: Adobe Illustrator 19.0.0, SVG Export Plug-In . SVG Version: 6.00 Build 0)  -->
<svg version="1.1" id="Capa_10" xmlns="http://www.w3.org/2000/svg" xmlns:xlink="http://www.w3.org/1999/xlink" x="0px" y="0px"
	 viewBox="0 0 155.6 137.3" style="enable-background:new 0 0 155.6 137.3;" xml:space="preserve">
<style type="text/css">
	.st0{fill:none;stroke:#000000;stroke-width:2;stroke-linecap:round;stroke-linejoin:round;stroke-miterlimit:10;}
	.st1{fill:#FFFFFF;}
	.st2{fill:none;stroke:#000000;stroke-linecap:round;stroke-linejoin:round;stroke-miterlimit:10;}
</style>
<g>
	<rect id="XMLID_187_" x="25.3" y="25.3" class="st0" width="105" height="70.3"/>
	<line id="XMLID_186_" class="st1" x1="25.8" y1="78.3" x2="129.8" y2="78.3"/>
	<line id="XMLID_185_" class="st0" x1="25.8" y1="78.3" x2="129.8" y2="78.3"/>
	<path id="XMLID_184_" d="M81.1,87c0,1.8-1.5,3.3-3.3,3.3s-3.3-1.5-3.3-3.3c0-1.8,1.5-3.3,3.3-3.3S81.1,85.1,81.1,87"/>
	<path id="XMLID_183_" d="M51.6,60.2c0,1.3-1,2.3-2.3,2.3c-1.3,0-2.3-1-2.3-2.3c0-1.3,1-2.3,2.3-2.3C50.5,57.8,51.6,58.9,51.6,60.2"
		/>
	<path id="XMLID_182_" d="M61.6,50c0,1.3-1,2.3-2.3,2.3c-1.3,0-2.3-1-2.3-2.3c0-1.3,1-2.3,2.3-2.3C60.6,47.7,61.6,48.8,61.6,50"/>
	<path id="XMLID_181_" d="M75.8,64.2c0,1.3-1,2.3-2.3,2.3c-1.3,0-2.3-1-2.3-2.3c0-1.3,1-2.3,2.3-2.3C74.7,61.9,75.8,62.9,75.8,64.2"
		/>
	<path id="XMLID_180_" d="M98.8,41.2c0,1.3-1,2.3-2.3,2.3c-1.3,0-2.3-1-2.3-2.3c0-1.3,1-2.3,2.3-2.3C97.8,38.9,98.8,39.9,98.8,41.2"
		/>
	<path id="XMLID_179_" d="M109.4,52c0,1.3-1,2.3-2.3,2.3c-1.3,0-2.3-1-2.3-2.3c0-1.3,1-2.3,2.3-2.3C108.4,49.7,109.4,50.8,109.4,52"
		/>
	<polyline id="XMLID_178_" class="st2" points="49.3,60.2 59.3,50.1 73.5,64.2 96.5,41.2 107.1,51.8 	"/>
	<rect id="XMLID_177_" x="65.3" y="95.6" class="st0" width="25" height="13.1"/>
	<rect id="XMLID_176_" x="58.8" y="108.7" class="st0" width="37.9" height="3.3"/>
	<rect id="XMLID_175_" x="25.3" y="25.3" class="st0" width="104.5" height="53.1"/>
</g>
</svg>
