<?xml version="1.0" encoding="utf-8"?>
<!-- Generator: Adobe Illustrator 19.0.0, SVG Export Plug-In . SVG Version: 6.00 Build 0)  -->
<svg version="1.1" id="Capa_7" xmlns="http://www.w3.org/2000/svg" xmlns:xlink="http://www.w3.org/1999/xlink" x="0px" y="0px"
	 viewBox="-63 73.2 155.6 137.3" style="enable-background:new -63 73.2 155.6 137.3;" xml:space="preserve">
<style type="text/css">
	.st0{fill:none;stroke:#000000;stroke-width:3;stroke-linecap:round;stroke-linejoin:round;stroke-miterlimit:10;}
</style>
<g>
	<path d="M15.5,118.4c10.3,0,18.8,8.4,18.8,18.8c0,10.3-8.4,18.8-18.8,18.8s-18.8-8.4-18.8-18.8C-3.3,126.9,5.2,118.4,15.5,118.4
		 M15.5,115.4c-12,0-21.8,9.7-21.8,21.8S3.5,159,15.5,159s21.8-9.7,21.8-21.8S27.5,115.4,15.5,115.4L15.5,115.4z"/>
</g>
<path class="st0" d="M-27.7,202.5c0-21,19.3-38,43.2-38s43.2,17,43.2,38"/>
<g>
	<g>
		<line class="st0" x1="14.5" y1="110.6" x2="14.5" y2="83.7"/>
		<polyline class="st0" points="22.2,90.9 14.5,83.3 6.9,90.9 		"/>
	</g>
	<g>
		<line class="st0" x1="44.4" y1="135.8" x2="71.4" y2="135.8"/>
		<polyline class="st0" points="64.1,143.4 71.7,135.8 64.1,128.2 		"/>
	</g>
	<g>
		<line class="st0" x1="-13.4" y1="135.8" x2="-40.4" y2="135.8"/>
		<polyline class="st0" points="-33.1,143.4 -40.7,135.8 -33.1,128.2 		"/>
	</g>
</g>
</svg>
