<?xml version="1.0" encoding="utf-8"?>
<!-- Generator: Adobe Illustrator 19.0.0, SVG Export Plug-In . SVG Version: 6.00 Build 0)  -->
<svg version="1.1" id="Capa_8" xmlns="http://www.w3.org/2000/svg" xmlns:xlink="http://www.w3.org/1999/xlink" x="0px" y="0px"
	 viewBox="0 0 155.6 137.3" style="enable-background:new 0 0 155.6 137.3;" xml:space="preserve">
<style type="text/css">
	.st0{fill:none;stroke:#000000;stroke-width:1.941;stroke-miterlimit:10;}
	.st1{fill:none;stroke:#000000;stroke-width:2;stroke-linecap:round;stroke-linejoin:round;stroke-miterlimit:10;}
	.st2{fill:#FFFFFF;}
	.st3{fill:none;stroke:#000000;stroke-width:1.642;stroke-linecap:round;stroke-linejoin:round;stroke-miterlimit:10;}
	.st4{fill:none;stroke:#000000;stroke-width:1.877;stroke-linecap:round;stroke-linejoin:round;stroke-miterlimit:10;}
	
		.st5{clip-path:url(#XMLID_2_);fill:none;stroke:#000000;stroke-width:2.59;stroke-linecap:round;stroke-linejoin:round;stroke-miterlimit:10;}
</style>
<g>
	<rect id="XMLID_130_" x="34.5" y="2.1" class="st0" width="76" height="91.1"/>
	<line id="XMLID_129_" class="st1" x1="42.2" y1="15.5" x2="103.2" y2="15.5"/>
	<line id="XMLID_128_" class="st1" x1="42.2" y1="22.5" x2="103.2" y2="22.5"/>
	<line id="XMLID_127_" class="st1" x1="42.2" y1="29.5" x2="103.2" y2="29.5"/>
	<line id="XMLID_126_" class="st1" x1="42.2" y1="37.5" x2="103.2" y2="37.5"/>
	<line id="XMLID_125_" class="st1" x1="42.2" y1="44.5" x2="103.2" y2="44.5"/>
	<line id="XMLID_124_" class="st1" x1="42.2" y1="51.5" x2="103.2" y2="51.5"/>
	<line id="XMLID_123_" class="st1" x1="42.2" y1="58.5" x2="103.2" y2="58.5"/>
	<line id="XMLID_122_" class="st1" x1="42.2" y1="66.5" x2="103.2" y2="66.5"/>
	<line id="XMLID_121_" class="st1" x1="42.2" y1="73.5" x2="103.2" y2="73.5"/>
	<line id="XMLID_120_" class="st1" x1="42.2" y1="80.5" x2="103.2" y2="80.5"/>
	<path id="XMLID_119_" class="st2" d="M111.1,64.2c5,11.1,0,24.1-11.1,29.1C89,98.2,76,93.3,71,82.2C66,71.1,71,58.1,82,53.1
		C93.1,48.1,106.2,53.1,111.1,64.2"/>
	<circle id="XMLID_118_" class="st1" cx="91.1" cy="73.2" r="22"/>
	<path id="XMLID_117_" class="st2" d="M107.5,65.8c4.1,9.1,0,19.8-9.1,23.9c-9.1,4.1-19.8,0-23.9-9.1c-4.1-9.1,0-19.8,9.1-23.9
		C92.8,52.6,103.5,56.7,107.5,65.8"/>
	<circle id="XMLID_116_" class="st3" cx="91.1" cy="73.2" r="18.1"/>
	
		<rect id="XMLID_115_" x="96.1" y="95.2" transform="matrix(0.9123 -0.4095 0.4095 0.9123 -30.6848 50.0941)" class="st2" width="11.1" height="3"/>
	
		<rect id="XMLID_114_" x="96.1" y="95.2" transform="matrix(0.9123 -0.4095 0.4095 0.9123 -30.6848 50.0941)" class="st3" width="11.1" height="3"/>
	
		<rect id="XMLID_113_" x="108" y="99" transform="matrix(0.9123 -0.4095 0.4095 0.9123 -38.3121 55.6868)" class="st2" width="5.8" height="36.7"/>
	
		<rect id="XMLID_112_" x="108" y="99" transform="matrix(0.9123 -0.4095 0.4095 0.9123 -38.3121 55.6868)" class="st4" width="5.8" height="36.7"/>
	<g>
		<defs>
			<path id="XMLID_94_" d="M90.7,55c-10,0.1-18,8.2-18,18.2c0.1,10,8.2,18,18.2,18c10-0.1,18-8.2,18-18.2c-0.1-9.9-8.1-18-18.1-18
				C90.8,55,90.8,55,90.7,55"/>
		</defs>
		<clipPath id="XMLID_2_">
			<use xlink:href="#XMLID_94_"  style="overflow:visible;"/>
		</clipPath>
		<line id="XMLID_111_" class="st5" x1="49.8" y1="28.2" x2="128.8" y2="27.7"/>
		<line id="XMLID_110_" class="st5" x1="49.8" y1="33.4" x2="128.8" y2="33"/>
		<line id="XMLID_109_" class="st5" x1="49.8" y1="38.7" x2="128.8" y2="38.3"/>
		<line id="XMLID_108_" class="st5" x1="49.8" y1="44" x2="128.8" y2="43.5"/>
		<line id="XMLID_107_" class="st5" x1="49.9" y1="49.2" x2="128.9" y2="48.8"/>
		<line id="XMLID_106_" class="st5" x1="49.9" y1="54.5" x2="128.9" y2="54"/>
		<line id="XMLID_105_" class="st5" x1="49.9" y1="59.7" x2="128.9" y2="59.3"/>
		<line id="XMLID_104_" class="st5" x1="50" y1="65" x2="129" y2="64.6"/>
		<line id="XMLID_103_" class="st5" x1="50" y1="70.3" x2="129" y2="69.8"/>
		<line id="XMLID_102_" class="st5" x1="50" y1="75.5" x2="129" y2="75.1"/>
		<line id="XMLID_101_" class="st5" x1="50" y1="80.8" x2="129" y2="80.3"/>
		<line id="XMLID_100_" class="st5" x1="50.1" y1="86" x2="129.1" y2="85.6"/>
		<line id="XMLID_99_" class="st5" x1="50.1" y1="91.3" x2="129.1" y2="90.9"/>
		<line id="XMLID_98_" class="st5" x1="50.1" y1="96.6" x2="129.1" y2="96.1"/>
		<line id="XMLID_97_" class="st5" x1="50.2" y1="101.8" x2="129.2" y2="101.4"/>
		<line id="XMLID_96_" class="st5" x1="50.2" y1="107.1" x2="129.2" y2="106.7"/>
		<line id="XMLID_95_" class="st5" x1="50.2" y1="112.4" x2="129.2" y2="111.9"/>
	</g>
</g>
</svg>
