<?xml version="1.0" encoding="utf-8"?>
<!-- Generator: Adobe Illustrator 19.0.0, SVG Export Plug-In . SVG Version: 6.00 Build 0)  -->
<svg version="1.1" id="Capa_6" xmlns="http://www.w3.org/2000/svg" xmlns:xlink="http://www.w3.org/1999/xlink" x="0px" y="0px"
	 viewBox="0 0 155.6 137.3" style="enable-background:new 0 0 155.6 137.3;" xml:space="preserve">
<style type="text/css">
	.st0{fill:none;stroke:#000000;stroke-width:1.941;stroke-miterlimit:10;}
	.st1{fill:none;stroke:#000000;stroke-width:2;stroke-miterlimit:10;}
	.st2{fill:#FFFFFF;}
	.st3{fill:none;stroke:#000000;stroke-width:2;stroke-linecap:round;stroke-linejoin:round;stroke-miterlimit:10;}
</style>
<g>
	<rect id="XMLID_152_" x="39.8" y="23.1" class="st0" width="76" height="91.1"/>
	<path id="XMLID_151_" class="st1" d="M50.4,102.5L50.4,102.5c0-12.2,8.7-22.7,20.6-25l12.6-2.4c10.9-2.1,18.8-11.6,18.8-22.7V33.5"
		/>
	<path id="XMLID_150_" class="st2" d="M106.2,32c0,2.1-1.7,3.8-3.8,3.8c-2.1,0-3.8-1.7-3.8-3.8c0-2.1,1.7-3.8,3.8-3.8
		C104.5,28.3,106.2,29.9,106.2,32"/>
	<circle id="XMLID_149_" class="st3" cx="102.4" cy="32" r="3.8"/>
	<path id="XMLID_148_" class="st2" d="M54.2,102.5c0,2.1-1.7,3.8-3.8,3.8c-2.1,0-3.8-1.7-3.8-3.8c0-2.1,1.7-3.8,3.8-3.8
		C52.5,98.8,54.2,100.4,54.2,102.5"/>
	<circle id="XMLID_147_" class="st3" cx="50.4" cy="102.5" r="3.8"/>
	<polyline id="XMLID_146_" class="st2" points="83.8,96.1 86.1,98.3 98.1,86.3 	"/>
	<polyline id="XMLID_145_" class="st3" points="83.8,96.1 86.1,98.3 98.1,86.3 	"/>
	<line id="XMLID_144_" class="st2" x1="60.1" y1="41.7" x2="66.3" y2="47.9"/>
	<line id="XMLID_143_" class="st3" x1="60.1" y1="41.7" x2="66.3" y2="47.9"/>
	<line id="XMLID_142_" class="st2" x1="60.1" y1="47.9" x2="66.3" y2="41.7"/>
	<line id="XMLID_141_" class="st3" x1="60.1" y1="47.9" x2="66.3" y2="41.7"/>
	<line id="XMLID_140_" class="st2" x1="60.1" y1="41.7" x2="66.3" y2="47.9"/>
	<line id="XMLID_139_" class="st3" x1="60.1" y1="41.7" x2="66.3" y2="47.9"/>
</g>
</svg>
