<?xml version="1.0" encoding="utf-8"?>
<!-- Generator: Adobe Illustrator 19.0.0, SVG Export Plug-In . SVG Version: 6.00 Build 0)  -->
<svg version="1.1" id="Capa_5" xmlns="http://www.w3.org/2000/svg" xmlns:xlink="http://www.w3.org/1999/xlink" x="0px" y="0px"
	 viewBox="0 0 155.6 137.3" style="enable-background:new 0 0 155.6 137.3;" xml:space="preserve">
<style type="text/css">
	.st0{fill:#FFFFFF;}
	.st1{fill:none;stroke:#FFFFFF;stroke-width:1.003;stroke-linecap:round;stroke-linejoin:round;stroke-miterlimit:10;}
	.st2{fill:none;stroke:#000000;stroke-width:2.216;stroke-linecap:round;stroke-linejoin:round;stroke-miterlimit:10;}
	.st3{fill:none;stroke:#FFFFFF;stroke-width:2.216;stroke-linecap:round;stroke-linejoin:round;stroke-miterlimit:10;}
	.st4{fill:none;stroke:#000000;stroke-width:3.851;stroke-linecap:round;stroke-linejoin:round;stroke-miterlimit:10;}
	.st5{fill:none;stroke:#000000;stroke-width:0.963;stroke-linecap:round;stroke-linejoin:round;stroke-miterlimit:10;}
</style>
<g>
	<path id="XMLID_196_" class="st0" d="M71.5,79.4c0,1.7-1.4,3.1-3.1,3.1c-1.7,0-3.1-1.4-3.1-3.1c0-1.7,1.4-3.1,3.1-3.1
		C70.1,76.2,71.5,77.6,71.5,79.4"/>
	<circle id="XMLID_195_" class="st1" cx="68.4" cy="79.4" r="3.1"/>
	<circle id="XMLID_194_" class="st2" cx="77.8" cy="68.6" r="28"/>
	<path id="XMLID_193_" d="M89.6,68.6c0,6.5-5.3,11.8-11.8,11.8c-6.5,0-11.8-5.3-11.8-11.8c0-6.5,5.3-11.8,11.8-11.8
		C84.3,56.8,89.6,62.1,89.6,68.6"/>
	<circle id="XMLID_192_" class="st2" cx="77.8" cy="68.6" r="11.8"/>
	<path id="XMLID_191_" class="st0" d="M95.6,59.7c0,3.8-3.1,7-7,7c-3.8,0-7-3.1-7-7c0-3.8,3.1-7,7-7C92.5,52.8,95.6,55.9,95.6,59.7"
		/>
	<circle id="XMLID_190_" class="st3" cx="88.7" cy="59.7" r="7"/>
	<path id="XMLID_189_" class="st4" d="M3.6,69.4l44-23.8c18.8-10.2,41.5-10.2,60.3,0l44,23.8l-45.5,23c-18,9.1-39.3,9.1-57.2,0
		L3.6,69.4z"/>
	<circle id="XMLID_188_" class="st5" cx="146.1" cy="69.2" r="1.9"/>
</g>
</svg>
