<?xml version="1.0" encoding="utf-8"?>
<!-- Generator: Adobe Illustrator 19.0.0, SVG Export Plug-In . SVG Version: 6.00 Build 0)  -->
<svg version="1.1" id="Capa_4" xmlns="http://www.w3.org/2000/svg" xmlns:xlink="http://www.w3.org/1999/xlink" x="0px" y="0px"
	 viewBox="0 0 155.6 137.3" style="enable-background:new 0 0 155.6 137.3;" xml:space="preserve">
<style type="text/css">
	.st0{fill:none;stroke:#000000;stroke-width:2;stroke-linecap:round;stroke-linejoin:round;stroke-miterlimit:10;}
</style>
<g>
	<path id="XMLID_174_" class="st0" d="M64.2,78.3h-13c0,0-18.5-0.8-18.5-19.7c0,0,1.2-13.3,14.3-16.5c0,0,11-2,17.2,6.2"/>
	<path id="XMLID_173_" class="st0" d="M46.9,41.9c0,0,1.9-18,17.2-18c15.3,0,18.5,14.7,18.5,14.7s22.6-10.6,27,14.9
		c0,0,12.7-1.3,12.7,12.5c0,0-1.5,11.3-11.8,11.3H91.2"/>
	<path id="XMLID_172_" class="st0" d="M90.2,58.3v31.3c0,4.2,3.4,7.7,7.7,7.7h0.3"/>
	<path id="XMLID_171_" class="st0" d="M65,58.3v31.3c0,4.2-3.4,7.7-7.7,7.7H57"/>
	<line id="XMLID_170_" class="st0" x1="74.2" y1="49.3" x2="74.2" y2="83.3"/>
	<line id="XMLID_169_" class="st0" x1="81.2" y1="49.3" x2="81.2" y2="83.3"/>
	<circle id="XMLID_168_" class="st0" cx="73.8" cy="89.3" r="1.2"/>
	<circle id="XMLID_167_" class="st0" cx="73.8" cy="96.8" r="1.2"/>
	<circle id="XMLID_166_" class="st0" cx="37.9" cy="96.8" r="1.2"/>
	<circle id="XMLID_165_" class="st0" cx="29.7" cy="96.8" r="1.2"/>
	<circle id="XMLID_164_" class="st0" cx="21.7" cy="96.8" r="1.2"/>
	<circle id="XMLID_163_" class="st0" cx="133.9" cy="96.8" r="1.2"/>
	<circle id="XMLID_162_" class="st0" cx="125.7" cy="96.8" r="1.2"/>
	<circle id="XMLID_161_" class="st0" cx="117.6" cy="96.8" r="1.2"/>
	<circle id="XMLID_160_" class="st0" cx="73.8" cy="104.5" r="1.2"/>
	<circle id="XMLID_159_" class="st0" cx="73.8" cy="112.2" r="1.2"/>
	<circle id="XMLID_158_" class="st0" cx="81.2" cy="89.3" r="1.2"/>
	<circle id="XMLID_157_" class="st0" cx="81.2" cy="96.8" r="1.2"/>
	<circle id="XMLID_156_" class="st0" cx="81.2" cy="104.5" r="1.2"/>
	<circle id="XMLID_155_" class="st0" cx="81.2" cy="112.2" r="1.2"/>
	<circle id="XMLID_154_" class="st0" cx="105.8" cy="96.9" r="6.6"/>
	<circle id="XMLID_153_" class="st0" cx="50.4" cy="96.9" r="6.6"/>
</g>
</svg>
