<?xml version="1.0" encoding="utf-8"?>
<!-- Generator: Adobe Illustrator 19.0.0, SVG Export Plug-In . SVG Version: 6.00 Build 0)  -->
<svg version="1.1" id="Capa_3" xmlns="http://www.w3.org/2000/svg" xmlns:xlink="http://www.w3.org/1999/xlink" x="0px" y="0px"
	 viewBox="0 0 155.6 137.3" style="enable-background:new 0 0 155.6 137.3;" xml:space="preserve">
<style type="text/css">
	.st0{fill:none;stroke:#000000;stroke-width:0.853;stroke-linecap:round;stroke-linejoin:round;stroke-miterlimit:10;}
	.st1{fill:none;stroke:#000000;stroke-linecap:round;stroke-linejoin:round;stroke-miterlimit:10;}
	.st2{fill:none;stroke:#000000;stroke-width:2;stroke-linecap:round;stroke-linejoin:round;stroke-miterlimit:10;}
	.st3{fill:#FFFFFF;}
</style>
<g>
	<path id="XMLID_37_" class="st0" d="M69.9,51.5c0,5.1-4.1,9.2-9.2,9.2c-5.1,0-9.2-4.1-9.2-9.2c0-5.1,4.1-9.2,9.2-9.2v9.2H69.9z"/>
	<path id="XMLID_36_" class="st1" d="M62.7,42.6c0.5,0.2,6.2,0.3,7.3,7.3h-7.2L62.7,42.6z"/>
	<line id="XMLID_35_" class="st1" x1="76.8" y1="42.8" x2="98.8" y2="42.8"/>
	<line id="XMLID_34_" class="st1" x1="76.8" y1="46.8" x2="98.8" y2="46.8"/>
	<line id="XMLID_33_" class="st1" x1="76.8" y1="50.8" x2="98.8" y2="50.8"/>
	<line id="XMLID_32_" class="st1" x1="76.8" y1="54.8" x2="98.8" y2="54.8"/>
	<line id="XMLID_31_" class="st1" x1="76.8" y1="59.8" x2="98.8" y2="59.8"/>
	<rect id="XMLID_30_" x="25.3" y="25.3" class="st2" width="105" height="70.3"/>
	<line id="XMLID_29_" class="st3" x1="25.8" y1="78.3" x2="129.8" y2="78.3"/>
	<line id="XMLID_28_" class="st2" x1="25.8" y1="78.3" x2="129.8" y2="78.3"/>
	<path id="XMLID_27_" d="M81.1,87c0,1.8-1.5,3.3-3.3,3.3s-3.3-1.5-3.3-3.3c0-1.8,1.5-3.3,3.3-3.3S81.1,85.1,81.1,87"/>
	<rect id="XMLID_26_" x="65.3" y="95.6" class="st2" width="25" height="13.1"/>
	<rect id="XMLID_25_" x="58.8" y="108.7" class="st2" width="37.9" height="3.3"/>
	<rect id="XMLID_24_" x="25.3" y="25.3" class="st2" width="104.5" height="53.1"/>
</g>
</svg>
