<?xml version="1.0" encoding="utf-8"?>
<!-- Generator: Adobe Illustrator 19.0.0, SVG Export Plug-In . SVG Version: 6.00 Build 0)  -->
<svg version="1.1" id="Capa_2" xmlns="http://www.w3.org/2000/svg" xmlns:xlink="http://www.w3.org/1999/xlink" x="0px" y="0px"
	 viewBox="0 0 155.6 137.3" style="enable-background:new 0 0 155.6 137.3;" xml:space="preserve">
<style type="text/css">
	.st0{fill:none;stroke:#000000;stroke-width:1.566;stroke-linecap:round;stroke-linejoin:round;stroke-miterlimit:10;}
	.st1{fill:none;stroke:#000000;stroke-width:0.853;stroke-linecap:round;stroke-linejoin:round;stroke-miterlimit:10;}
	.st2{fill:none;stroke:#000000;stroke-linecap:round;stroke-linejoin:round;stroke-miterlimit:10;}
</style>
<g>
	<rect id="XMLID_93_" x="49.3" y="34" class="st0" width="58" height="77.7"/>
	<path id="XMLID_92_" class="st1" d="M72.5,48.8c0,5.1-4.1,9.2-9.2,9.2c-5.1,0-9.2-4.1-9.2-9.2c0-5.1,4.1-9.2,9.2-9.2v9.2H72.5z"/>
	<path id="XMLID_91_" class="st2" d="M65.2,40c0.5,0.2,6.2,0.3,7.3,7.3h-7.2L65.2,40z"/>
	<line id="XMLID_90_" class="st2" x1="79.3" y1="40.2" x2="101.3" y2="40.2"/>
	<line id="XMLID_89_" class="st2" x1="79.3" y1="44.2" x2="101.3" y2="44.2"/>
	<line id="XMLID_88_" class="st2" x1="79.3" y1="48.2" x2="101.3" y2="48.2"/>
	<line id="XMLID_87_" class="st2" x1="79.3" y1="52.2" x2="101.3" y2="52.2"/>
	<line id="XMLID_86_" class="st2" x1="79.3" y1="57.2" x2="101.3" y2="57.2"/>
	<rect id="XMLID_85_" x="58" y="65.9" class="st1" width="3.4" height="37.5"/>
	<rect id="XMLID_45_" x="67.1" y="69.9" class="st1" width="3.4" height="33.5"/>
	<rect id="XMLID_44_" x="75.7" y="73.3" class="st1" width="3.4" height="30.1"/>
	<rect id="XMLID_43_" x="83.1" y="80.5" class="st1" width="3.4" height="22.9"/>
	<rect id="XMLID_42_" x="90.2" y="85.6" class="st1" width="3.4" height="17.8"/>
	<rect id="XMLID_41_" x="97.2" y="92" class="st1" width="3.4" height="11.5"/>
	<rect id="XMLID_40_" x="46.3" y="31" class="st2" width="63" height="84.1"/>
	<path id="XMLID_39_" class="st2" d="M61.3,30.4h33l-14.1-3.9c-1.8-0.5-3.7-0.5-5.5,0L61.3,30.4z"/>
	<circle id="XMLID_38_" class="st2" cx="77.7" cy="24.2" r="2"/>
</g>
</svg>
