<?xml version="1.0" encoding="utf-8"?>
<!-- Generator: Adobe Illustrator 19.0.0, SVG Export Plug-In . SVG Version: 6.00 Build 0)  -->
<svg version="1.1" id="Capa_1" xmlns="http://www.w3.org/2000/svg" xmlns:xlink="http://www.w3.org/1999/xlink" x="0px" y="0px"
	 viewBox="0 0 76.2 63.3" style="enable-background:new 0 0 76.2 63.3;" xml:space="preserve">
<style type="text/css">
	.st0{fill:none;stroke:#000000;stroke-width:1.83;stroke-linecap:round;stroke-linejoin:round;stroke-miterlimit:10;}
</style>
<g>
	<path id="XMLID_31_" class="st0" d="M43.4,25.2l7.3,12c3.3-0.8,2.2-4.2,2.2-4.2l-7.7-13.5c-1-2.3-2.5-0.8-2.5-0.8
		c-2.6,7.9-9.6,5.4-9.6,5.4S43.3,7.1,43.3,7.1c0.1-0.2,2.8,1.2,3,1.3c2.3,1.3,4.3,3,5.8,5.1c3.6,5,5.4,14,1.3,19.3"/>
	<path id="XMLID_30_" class="st0" d="M40.2,32.8L46.1,43c0,0,4.1,1.3,4.7-5.9"/>
	<path id="XMLID_29_" class="st0" d="M46.1,43c0,0,1.6,4.5-2.5,5.3"/>
	<path id="XMLID_28_" class="st0" d="M25,35.5l4.3-7c0,0,5.5,1.2,2.9,5.9l-3.6,6.3C28.7,40.7,24,41.1,25,35.5z"/>
	<path id="XMLID_27_" class="st0" d="M32.6,33.7c0.8,0.1,1.7,0.4,2.3,1c3.5,2.9-1.6,8.5-3.3,11c0,0-4,0.3-3.8-5"/>
	<path id="XMLID_26_" class="st0" d="M35.8,39.1c0,0,5.7,0.8,3.3,5.7l-4.4,6.7c0,0-4.2-0.8-3-5.8"/>
	<path id="XMLID_25_" class="st0" d="M39.3,44.2c0,0,5,1.2,3,6.2L38.5,57c0,0-4.2,0.1-4.3-5.6"/>
	<path id="XMLID_24_" class="st0" d="M43.3,7.1c0,0-15.1-5.6-22.2,11.9c0,0-3,8.1,3.9,16.5"/>
</g>
</svg>
