<?xml version="1.0" encoding="utf-8"?>
<!-- Generator: Adobe Illustrator 19.0.0, SVG Export Plug-In . SVG Version: 6.00 Build 0)  -->
<svg version="1.1" id="Capa_5" xmlns="http://www.w3.org/2000/svg" xmlns:xlink="http://www.w3.org/1999/xlink" x="0px" y="0px"
	 viewBox="0 0 76.2 63.3" style="enable-background:new 0 0 76.2 63.3;" xml:space="preserve">
<style type="text/css">
	.st0{fill:none;stroke:#000000;stroke-width:2;stroke-linecap:round;stroke-linejoin:round;stroke-miterlimit:10;}
	.st1{fill:none;stroke:#000000;stroke-linecap:round;stroke-linejoin:round;stroke-miterlimit:10;}
</style>
<g>
	<circle id="XMLID_9_" class="st0" cx="38.1" cy="26.4" r="18.3"/>
	<path id="XMLID_8_" class="st0" d="M38.1,55.2L38.1,55.2c-2.6,0-4.6-2.1-4.6-4.6v-5.9h9.3v5.9C42.7,53.1,40.6,55.2,38.1,55.2z"/>
	<line id="XMLID_7_" class="st0" x1="34.1" y1="49.8" x2="42.1" y2="49.8"/>
	<path id="XMLID_6_" class="st1" d="M35.5,44.6V30.2c0-0.3,0.3-0.4,0.5-0.2l1.4,1.5c0.4,0.4,1.2,0.4,1.5-0.1L40,30
		c0.2-0.2,0.5-0.1,0.5,0.2v14.4"/>
	<path id="XMLID_5_" class="st1" d="M42.7,11.7c6.2,2,10.7,7.8,10.7,14.7"/>
	<path id="XMLID_4_" d="M52.9,30.2c1,0,1-1.5,0-1.5C51.9,28.7,51.9,30.2,52.9,30.2"/>
</g>
</svg>
