<?xml version="1.0" encoding="utf-8"?>
<!-- Generator: Adobe Illustrator 19.0.0, SVG Export Plug-In . SVG Version: 6.00 Build 0)  -->
<svg version="1.1" id="Capa_3" xmlns="http://www.w3.org/2000/svg" xmlns:xlink="http://www.w3.org/1999/xlink" x="0px" y="0px"
	 viewBox="-103 110.2 76.2 63.3" style="enable-background:new -103 110.2 76.2 63.3;" xml:space="preserve">
<style type="text/css">
	.st0{fill:#FFFFFF;}
</style>
<g>
	<g>
		<path d="M-91.3,140.7H-59c1.6,0,2.9,1.3,2.9,2.9v18.1c0,1.6-1.3,2.9-2.9,2.9h-28.6l-2.4,2.7v-2.7h-1.4c-1.6,0-2.9-1.3-2.9-2.9
			v-18.1C-94.2,142-92.9,140.7-91.3,140.7z"/>
		<path d="M-89.9,168.5c-0.1,0-0.3,0-0.4-0.1c-0.4-0.2-0.7-0.6-0.7-1.1v-1.6h-0.3c-2.2,0-4-1.8-4-4v-18.1c0-2.2,1.8-4,4-4H-59
			c2.2,0,4,1.8,4,4v18.1c0,2.2-1.8,4-4,4H-87l-2,2.3C-89.3,168.3-89.6,168.5-89.9,168.5z M-91.3,141.9c-1,0-1.7,0.8-1.7,1.7v18.1
			c0,1,0.8,1.7,1.7,1.7h1.4c0.5,0,1,0.4,1.1,0.8l0.4-0.5c0.2-0.2,0.5-0.4,0.9-0.4H-59c1,0,1.7-0.8,1.7-1.7v-18.1
			c0-1-0.8-1.7-1.7-1.7H-91.3z"/>
	</g>
	<g>
		<path class="st0" d="M-38.2,120.5h-42.7c-2.1,0-3.8,1.7-3.8,3.8v24c0,2.1,1.7,3.8,3.8,3.8h37.7l3.1,3.6V152h1.9
			c2.1,0,3.8-1.7,3.8-3.8v-24C-34.4,122.2-36.1,120.5-38.2,120.5z"/>
		<path d="M-40,156.7c-0.3,0-0.6-0.1-0.9-0.4l-2.8-3.2h-37.2c-2.7,0-4.9-2.2-4.9-4.9v-24c0-2.7,2.2-4.9,4.9-4.9h42.7
			c2.7,0,4.9,2.2,4.9,4.9v24c0,2.7-2.2,4.9-4.9,4.9h-0.7v2.4c0,0.5-0.3,0.9-0.7,1.1C-39.7,156.7-39.9,156.7-40,156.7z M-80.9,121.6
			c-1.5,0-2.7,1.2-2.7,2.7v24c0,1.5,1.2,2.7,2.7,2.7h37.7c0.3,0,0.6,0.1,0.9,0.4l1.1,1.3V152c0-0.6,0.5-1.1,1.1-1.1h1.9
			c1.5,0,2.7-1.2,2.7-2.7v-24c0-1.5-1.2-2.7-2.7-2.7H-80.9z"/>
	</g>
	<g>
		<g id="XMLID_14_">
			<g id="XMLID_15_">
				<path class="st0" d="M-66.8,134.4c0,1.8-1.4,3.2-3.2,3.2c-1.8,0-3.2-1.4-3.2-3.2H-66.8z"/>
				<path d="M-70,138.1c-2.1,0-3.7-1.7-3.7-3.7c0-0.3,0.3-0.6,0.6-0.6h6.4c0.3,0,0.6,0.3,0.6,0.6C-66.3,136.4-67.9,138.1-70,138.1z
					 M-72.5,134.9c0.3,1.2,1.3,2,2.5,2s2.3-0.9,2.5-2H-72.5z"/>
			</g>
			<g id="XMLID_16_">
				<polygon class="st0" points="-73.3,134.6 -66.7,134.6 -70,126.4 				"/>
				<path d="M-66.7,135.2h-6.6c-0.2,0-0.4-0.1-0.5-0.3c-0.1-0.2-0.1-0.4-0.1-0.5l3.3-8.2c0.1-0.2,0.3-0.4,0.5-0.4
					c0.2,0,0.4,0.1,0.5,0.4l3.3,8.2c0.1,0.2,0,0.4-0.1,0.5C-66.4,135.1-66.5,135.2-66.7,135.2z M-72.5,134h4.9l-2.5-6.1L-72.5,134z"
					/>
			</g>
		</g>
		<g id="XMLID_17_">
			<g id="XMLID_18_">
				<path class="st0" d="M-45.8,134.4c0,1.8-1.4,3.2-3.2,3.2s-3.2-1.4-3.2-3.2H-45.8z"/>
				<path d="M-48.9,138.1c-2.1,0-3.7-1.7-3.7-3.7c0-0.3,0.3-0.6,0.6-0.6h6.4c0.3,0,0.6,0.3,0.6,0.6
					C-45.2,136.4-46.9,138.1-48.9,138.1z M-51.5,134.9c0.3,1.2,1.3,2,2.5,2s2.3-0.9,2.5-2H-51.5z"/>
			</g>
			<g id="XMLID_19_">
				<polygon class="st0" points="-52.3,134.6 -45.7,134.6 -49,126.4 				"/>
				<path d="M-45.7,135.2h-6.6c-0.2,0-0.4-0.1-0.5-0.3c-0.1-0.2-0.1-0.4-0.1-0.5l3.3-8.2c0.1-0.2,0.3-0.4,0.5-0.4
					c0.2,0,0.4,0.1,0.5,0.4l3.3,8.2c0.1,0.2,0,0.4-0.1,0.5C-45.3,135.1-45.5,135.2-45.7,135.2z M-51.4,134h4.9l-2.5-6.1L-51.4,134z"
					/>
			</g>
		</g>
		<g id="XMLID_20_">
			<polyline class="st0" points="-71.6,124.5 -70.3,125.9 -48.7,125.9 -47.4,124.5 			"/>
			<path d="M-48.7,126.4h-21.6c-0.2,0-0.3-0.1-0.4-0.2L-72,125c-0.2-0.2-0.2-0.6,0-0.8c0.2-0.2,0.6-0.2,0.8,0l1.1,1.1H-49l1.2-1.2
				c0.2-0.2,0.6-0.2,0.8,0s0.2,0.6,0,0.8l-1.4,1.4C-48.4,126.4-48.6,126.4-48.7,126.4z"/>
		</g>
		<g>
			<path d="M-48.1,147.4h-21.8c-0.3,0-0.6-0.3-0.6-0.6v-1.7c0-0.3,0.3-0.6,0.6-0.6h21.8c0.3,0,0.6,0.3,0.6,0.6v1.7
				C-47.5,147.1-47.8,147.4-48.1,147.4z M-69.3,146.2h20.6v-0.6h-20.6V146.2z"/>
		</g>
		<g id="XMLID_21_">
			<path d="M-59,143.9c-0.3,0-0.6-0.3-0.6-0.6v-16.9c0-0.3,0.3-0.6,0.6-0.6c0.3,0,0.6,0.3,0.6,0.6v16.9
				C-58.4,143.6-58.7,143.9-59,143.9z"/>
		</g>
		<g>
			<circle class="st0" cx="-59" cy="125.5" r="1"/>
			<path d="M-59,126.9c-0.7,0-1.3-0.6-1.3-1.3s0.6-1.3,1.3-1.3c0.7,0,1.3,0.6,1.3,1.3S-58.3,126.9-59,126.9z M-59,124.8
				c-0.4,0-0.8,0.3-0.8,0.8c0,0.4,0.3,0.8,0.8,0.8c0.4,0,0.8-0.3,0.8-0.8C-58.2,125.1-58.6,124.8-59,124.8z"/>
		</g>
	</g>
</g>
</svg>
