<?xml version="1.0" encoding="utf-8"?>
<!-- Generator: Adobe Illustrator 19.0.0, SVG Export Plug-In . SVG Version: 6.00 Build 0)  -->
<svg version="1.1" id="Capa_4" xmlns="http://www.w3.org/2000/svg" xmlns:xlink="http://www.w3.org/1999/xlink" x="0px" y="0px"
	 viewBox="0 0 76.2 63.3" style="enable-background:new 0 0 76.2 63.3;" xml:space="preserve">
<style type="text/css">
	.st0{fill:none;stroke:#000000;stroke-width:2;stroke-linecap:round;stroke-linejoin:round;stroke-miterlimit:10;}
</style>
<g>
	<path d="M25.2,18.5c-0.1,0.3-0.1,0.6-0.1,0.9c0,1.5,0.8,2.8,2,3.5c0,0.2,0,0.3,0,0.5c0,3.3,2.7,6,6,6c2.1,0,3.9-1.1,5-2.7
		c1.1,1.6,2.9,2.7,5,2.7c3.3,0,6-2.7,6-6c0-0.2,0-0.4,0-0.5c1.2-0.7,2-2,2-3.5c0-0.3,0-0.6-0.1-0.9c1.3-0.9,2.1-2.4,2.1-4.1
		c0-1.6-0.8-3.1-2.1-4.1c0.1-0.3,0.1-0.6,0.1-0.9c0-2.5-1.9-4.6-4.4-4.9c-0.8-1.8-2.5-3.1-4.6-3.1c-1.6,0-3.1,0.8-4,2
		c-0.9-1.2-2.4-2-4-2c-2.1,0-3.8,1.3-4.6,3.1c-2.5,0.3-4.4,2.4-4.4,4.9c0,0.3,0,0.6,0.1,0.9c-1.3,0.9-2.1,2.4-2.1,4.1
		C23.1,16.1,23.9,17.6,25.2,18.5 M42.1,3.5c1.7,0,3,1.3,3,3c0,1.7-1.3,3-3,3v2c2.7,0,4.9-2.1,5-4.8c1.2,0.4,2,1.5,2,2.8
		c0,1.7-1.3,3-3,3v2c1.7,0,3.2-0.9,4.1-2.1c0.6,0.6,0.9,1.3,0.9,2.1c0,1.2-0.7,2.2-1.8,2.7l-1,0.4l0.5,0.9c0.2,0.3,0.2,0.6,0.2,0.9
		c0,0.5-0.2,1-0.6,1.4c-1-2-3-3.4-5.4-3.4v2c2.2,0,4,1.8,4,4s-1.8,4-4,4c-2.2,0-4-1.8-4-4v-17C39.1,4.8,40.4,3.5,42.1,3.5 M26,12.3
		c0.9,1.3,2.4,2.1,4.1,2.1v-2c-1.7,0-3-1.3-3-3c0-1.3,0.8-2.4,2-2.8c0.1,2.7,2.3,4.8,5,4.8v-2c-1.7,0-3-1.3-3-3c0-1.7,1.3-3,3-3
		s3,1.3,3,3v17c0,2.2-1.8,4-4,4s-4-1.8-4-4s1.8-4,4-4v-2c-2.4,0-4.4,1.4-5.4,3.4c-0.4-0.4-0.6-0.9-0.6-1.4c0-0.3,0.1-0.6,0.2-0.9
		l0.5-0.9l-1-0.4c-1.1-0.5-1.8-1.6-1.8-2.7C25.1,13.7,25.4,12.9,26,12.3"/>
	<polyline id="XMLID_20_" class="st0" points="57.6,18.3 74.1,18.3 74.1,61.8 2.1,61.8 2.1,18.3 19.6,18.3 	"/>
	<line id="XMLID_19_" class="st0" x1="38.1" y1="28.8" x2="38.1" y2="49.8"/>
	<line id="XMLID_18_" class="st0" x1="38.1" y1="53.8" x2="38.1" y2="61.8"/>
	<polyline id="XMLID_17_" class="st0" points="48.1,24.8 58.1,24.8 58.1,39.8 	"/>
	<circle id="XMLID_16_" class="st0" cx="58.1" cy="44.5" r="1.1"/>
	<circle id="XMLID_15_" class="st0" cx="47" cy="52.3" r="1.1"/>
	<line id="XMLID_14_" class="st0" x1="47.1" y1="26.8" x2="47.1" y2="47.8"/>
	<polyline id="XMLID_13_" class="st0" points="28.1,24.8 19.1,24.8 19.1,39.8 	"/>
	<circle id="XMLID_12_" class="st0" cx="19" cy="44.5" r="1.1"/>
	<circle id="XMLID_11_" class="st0" cx="30.1" cy="52.3" r="1.1"/>
	<line id="XMLID_10_" class="st0" x1="30.1" y1="27.8" x2="30.1" y2="47.8"/>
</g>
</svg>
