<?xml version="1.0" encoding="utf-8"?>
<!-- Generator: Adobe Illustrator 19.0.0, SVG Export Plug-In . SVG Version: 6.00 Build 0)  -->
<svg version="1.1" id="Capa_1" xmlns="http://www.w3.org/2000/svg" xmlns:xlink="http://www.w3.org/1999/xlink" x="0px" y="0px"
	 viewBox="0 0 150.7 154.9" style="enable-background:new 0 0 150.7 154.9;" xml:space="preserve">
<style type="text/css">
	.st0{fill:#FFFFFF;}
    .container{fill:#000000;}
    .container:hover{fill:#ED1B33;}
    
</style>
<g>
	<g>
		<g>
			<g>
				<path class="container" d="M136.7,5.4H14c-5.9,0-10.6,4.6-10.6,10.4V139c0,5.7,4.8,10.4,10.6,10.4h122.7c5.9,0,10.7-4.7,10.7-10.4V15.8
					C147.4,10.1,142.6,5.4,136.7,5.4z"/>
				<path class="st0" d="M24.7,59.4h21.4v68.7H24.7V59.4z M35.4,25.3c6.8,0,12.4,5.5,12.4,12.4c0,6.8-5.5,12.4-12.4,12.4
					C28.5,50,23,44.5,23,37.6C23,30.8,28.5,25.3,35.4,25.3"/>
				<path class="st0" d="M59.5,59.4h20.5v9.4h0.3c2.9-5.4,9.8-11.1,20.2-11.1c21.6,0,25.6,14.2,25.6,32.7v37.7h-21.3V94.7
					c0-8-0.1-18.2-11.1-18.2c-11.1,0-12.8,8.7-12.8,17.6v34H59.5V59.4z"/>
			</g>
		</g>
	</g>
</g>
</svg>
