<?xml version="1.0" encoding="utf-8"?>
<!-- Generator: Adobe Illustrator 19.0.0, SVG Export Plug-In . SVG Version: 6.00 Build 0)  -->
<svg version="1.1" id="Capa_1" xmlns="http://www.w3.org/2000/svg" xmlns:xlink="http://www.w3.org/1999/xlink" x="0px" y="0px"
	 viewBox="-115.9 35 69 214.9" style="enable-background:new -115.9 35 69 214.9;" xml:space="preserve">
<style type="text/css">
	.st0{fill:none;stroke:#ED1B33;stroke-linecap:round;stroke-linejoin:round;stroke-miterlimit:10;}
	.st1{fill:#ED1B33;}
</style>
<script  xlink:href="js/script.js"></script>
<g id="XMLID_1_">
	<polyline id="XMLID_17_" class="st0" points="-103.8,50.3 -58.5,76.4 -103.8,102.5 -58.5,128.7 -103.8,154.8 -58.5,181.4 
		-104.5,207.6 -58.5,235.2 	"/>
	<path id="menu-item-1" class="st1" d="M-93.6,50.2c0,5.5-4.5,10-10,10c-5.6,0-10-4.5-10-10s4.5-10,10-10S-93.6,44.7-93.6,50.2"/>
	<path id="menu-item-2" class="st1" d="M-48.1,76.5c0,5.6-4.4,10-10,10s-10-4.4-10-10c0-5.6,4.4-10,10-10S-48.1,70.9-48.1,76.5"/>
	<path id="menu-item-3" class="st1" d="M-92.5,102.4c0,5.6-4.4,10-10,10c-5.6,0-10-4.4-10-10s4.4-10,10-10
		C-96.9,92.4-92.5,96.8-92.5,102.4"/>
	<path id="menu-item-4" class="st1" d="M-48.6,128.8c0,5.6-4.4,10-10,10s-10-4.4-10-10s4.4-10,10-10S-48.6,123.2-48.6,128.8"/>
	<path id="menu-item-5" class="st1" d="M-92.5,154.6c0,5.6-4.4,10-10,10c-5.6,0-10-4.4-10-10c0-5.6,4.4-10,10-10
		C-96.9,144.6-92.5,149-92.5,154.6"/>
	<path id="menu-item-6" class="st1" d="M-48.5,181.6c0,5.6-4.4,10-10,10s-10-4.4-10-10c0-5.6,4.4-10,10-10S-48.5,176-48.5,181.6"/>
	<path id="menu-item-7" class="st1" d="M-48.5,235.6c0,5.6-4.4,10-10,10s-10-4.4-10-10c0-5.6,4.4-10,10-10S-48.5,230-48.5,235.6"/>
	<path id="menu-item-8" class="st1" d="M-94.5,207.6c0,5.6-4.4,10-10,10s-10-4.4-10-10c0-5.6,4.4-10,10-10S-94.5,202-94.5,207.6"/>
</g>
</svg>
