<?xml version="1.0" encoding="utf-8"?>
<!-- Generator: Adobe Illustrator 19.0.0, SVG Export Plug-In . SVG Version: 6.00 Build 0)  -->
<svg version="1.1" id="Capa_1" xmlns="http://www.w3.org/2000/svg" xmlns:xlink="http://www.w3.org/1999/xlink" x="0px" y="0px"
	 viewBox="0 0 150.7 154.9" style="enable-background:new 0 0 150.7 154.9;" xml:space="preserve">
<path d="M147.4,32.8c-5.3,2.3-11,3.9-17,4.7c6.1-3.7,10.8-9.4,13-16.3c-5.7,3.4-12,5.8-18.8,7.2c-5.4-5.7-13.1-9.3-21.6-9.3
	c-16.3,0-29.5,13.2-29.5,29.5c0,2.3,0.3,4.6,0.8,6.7C49.7,54,28,42.2,13.4,24.3c-2.5,4.4-4,9.4-4,14.9c0,10.3,5.2,19.3,13.1,24.6
	c-4.8-0.2-9.4-1.5-13.4-3.7c0,0.1,0,0.2,0,0.4c0,14.3,10.2,26.3,23.7,29c-2.5,0.7-5.1,1-7.8,1c-1.9,0-3.8-0.2-5.6-0.5
	c3.8,11.7,14.7,20.3,27.6,20.5c-10.1,7.9-22.9,12.6-36.7,12.6c-2.4,0-4.7-0.1-7-0.4C16.4,131.1,32,136,48.6,136
	c54.3,0,84.1-45,84.1-84.1c0-1.3,0-2.6-0.1-3.8C138.4,43.9,143.4,38.7,147.4,32.8z"/>
</svg>
